<?xml version="1.0" encoding="utf-8"?>
<!-- Generator: Adobe Illustrator 25.4.1, SVG Export Plug-In . SVG Version: 6.00 Build 0)  -->
<svg version="1.1" id="Calque_1" xmlns="http://www.w3.org/2000/svg" xmlns:xlink="http://www.w3.org/1999/xlink" x="0px" y="0px"
	 viewBox="0 0 566.9 141.7" style="enable-background:new 0 0 566.9 141.7;" xml:space="preserve">
<style type="text/css">
	.st0{fill:#FFBA00;}
	.st1{fill:#185ADB;}
</style>
<path id="Tracé_8689" class="st0" d="M283.7,44.2H219c-5.3,0-9.5,4.3-9.5,9.5c0,0,0,0,0,0V88c0,5.3,4.3,9.5,9.5,9.5c0,0,0,0,0,0
	h28.6c5.3,0,9.5-4.3,9.5-9.5l0,0V67.5h-23.8v6.7h16.2v12.9c0,2.1-1.7,3.8-3.8,3.8l0,0h-24.8c-2.1,0-3.8-1.7-3.8-3.8l0,0V54.7
	c0-2.1,1.7-3.8,3.8-3.8l0,0h55.3v46.7c0,9.2-7.5,16.7-16.7,16.7H207c-9.2,0-16.7-7.5-16.7-16.7V44.2c0-9.2,7.5-16.7,16.7-16.7h76.7
	v-6.7h-78.1c-12.6,0-22.9,10.2-22.9,22.9V98c0,12.6,10.2,22.9,22.9,22.9h55.2c12.6,0,22.9-10.2,22.9-22.9L283.7,44.2z"/>
<path id="Tracé_8690" class="st1" d="M158.9,88V44.2h-7.6v42.9c0,2.1-1.7,3.8-3.8,3.8l0,0h-24.8c-2.1,0-3.8-1.7-3.8-3.8l0,0V44.2
	h-7.6V88c0,5.3,4.3,9.5,9.5,9.5l0,0h28.6C154.7,97.5,158.9,93.3,158.9,88z"/>
<path id="Tracé_8691" class="st1" d="M355.1,88V44.2h-7.6v42.9c0,2.1-1.7,3.8-3.8,3.8l0,0H319c-2.1,0-3.8-1.7-3.8-3.8l0,0V44.2
	h-7.6V88c0,5.3,4.3,9.5,9.5,9.5l0,0h28.6C350.9,97.5,355.1,93.3,355.1,88L355.1,88z"/>
<path id="Tracé_8692" class="st1" d="M46.6,97.5h-7.8l24.1-53.3h7.5l24.2,53.3h-8L66.6,52L46.6,97.5z"/>
<path id="Tracé_8693" class="st1" d="M480.1,97.5h-7.9l24.1-53.3h7.5l24.2,53.3h-8l-20-45.6L480.1,97.5z"/>
<path id="Tracé_8694" class="st1" d="M448,44.2h7.6v53.3H448V44.2z"/>
<path id="Tracé_8695" class="st1" d="M410.9,77.5h3.7c5.3,0,9.5-4.3,9.5-9.5V53.7c0-5.3-4.3-9.5-9.5-9.5l0,0h-35.7v53.3h7.6v-20
	h16.1l14,20h8.3L410.9,77.5z M386.6,70.9v-20h26.2c2.1,0,3.8,1.7,3.8,3.8l0,0v12.4c0,2.1-1.7,3.8-3.8,3.8l0,0H386.6z"/>
</svg>
